<svg width="337" height="337" viewBox="0 0 337 337" fill="none" xmlns="http://www.w3.org/2000/svg">
    <g clip-path="url(#clip0_2_159)">
    <path d="M336.296 153.265C334.465 133.748 329.251 114.698 320.885 96.9693C320.885 96.9693 320.885 96.9693 320.885 96.5471V96.1952C310.021 73.1936 294.085 52.9535 274.275 36.996C254.464 21.0384 231.295 9.77853 206.507 4.06247C181.719 -1.65358 155.959 -1.67711 131.16 3.99365C106.362 9.66441 83.1722 20.882 63.3326 36.8033L62.4882 37.4366C41.537 54.4079 24.919 76.1151 14.0035 100.769H14.0739C3.89667 123.891 -0.927182 149.013 -0.037692 174.26C0.851798 199.507 7.43166 224.227 19.2108 246.575C19.1858 246.809 19.1858 247.045 19.2108 247.279C28.4483 264.602 40.6141 280.196 55.1697 293.371H56.2956C87.2073 321.197 127.336 336.577 168.928 336.538C210.519 336.499 250.619 321.044 281.478 293.16C281.683 292.99 281.872 292.802 282.041 292.597C298.587 277.592 312.004 259.465 321.519 239.257L321.941 238.342C331.879 216.487 337.014 192.755 337 168.746C337 163.328 336.719 158.261 336.296 153.265ZM102.036 34.1996C104.78 26.5293 120.121 18.2961 129.339 14.7072C142.268 11.446 155.554 9.81481 168.887 9.85172C206.219 9.91059 242.321 23.1997 270.782 47.3587C263.556 43.2934 255.849 40.1492 247.842 37.9996C211.109 28.1478 173.883 35.1848 146.791 39.9699C124.554 43.981 106.962 47.0069 102.528 39.4773C102.036 38.6988 101.735 37.8148 101.649 36.8976C101.563 35.9803 101.696 35.0558 102.036 34.1996ZM69.7362 44.4736C77.2559 38.4829 85.2852 33.1614 93.7323 28.57L92.7471 30.8219C91.9376 33.0379 91.6313 35.4062 91.8504 37.7552C92.0695 40.1042 92.8085 42.3751 94.0137 44.4032C95.4434 46.988 97.5313 49.1487 100.066 50.6661C75.5769 54.2549 70.4399 50.0328 69.4547 48.7661C68.4696 47.4995 69.2436 45.5291 69.7362 44.4736ZM23.0812 105.554C31.7696 85.6151 44.4643 67.6748 60.3771 52.8475C60.6703 53.5699 61.0482 54.255 61.503 54.8883C64.2474 58.5475 69.5251 61.9252 83.4583 61.9252C105.714 60.6736 127.713 56.534 148.902 49.6105C176.487 44.6143 210.687 38.4921 245.308 47.5698C284.012 57.703 308.641 95.21 311.808 100.558C316.437 110.268 320.045 120.432 322.574 130.887C303.786 109.284 262.619 81.6287 183.383 106.188C154.572 115.357 127.243 128.655 102.247 145.665L94.0137 150.802C66.3585 167.48 46.3735 172.406 34.5514 165.439C17.8035 156.009 20.4775 119.628 23.0812 105.554ZM40.1106 261.493C52.7532 268.054 66.7531 271.572 80.9954 271.767C83.9345 271.773 86.8714 271.608 89.7916 271.275C106.547 269.091 122.312 262.101 135.18 251.149C125.258 271.767 112.802 284.645 98.0248 289.43C85.8902 292.883 72.8934 291.548 61.7141 285.701C53.7306 278.365 46.4941 270.257 40.1106 261.493ZM275.356 285.63C249.397 309.352 216.28 323.757 181.227 326.573C146.175 329.389 111.182 320.455 81.7694 301.182H84.7953C90.2604 301.179 95.6936 300.349 100.91 298.719C119.98 292.667 135.461 275.99 146.932 249.46C174.376 185.565 221.946 179.091 245.449 185.213C254.544 188.211 262.865 193.177 269.822 199.757C276.779 206.337 282.201 214.369 285.701 223.283C293.3 242.353 289.571 263.956 275.356 285.63ZM312.652 234.612C308.384 243.851 303.247 252.663 297.312 260.93C301.001 247.286 300.387 232.835 295.552 219.553C291.527 209.164 285.22 199.812 277.096 192.187C268.972 184.562 259.239 178.86 248.616 175.502C226.379 169.661 185.916 173.461 155.587 214.698C135.743 242.845 113.365 258.538 89.299 261.282C67.1883 262.908 45.2976 255.981 28.1478 241.931C11.8835 211.267 6.2647 176.069 12.1739 141.865C14.0739 154.813 18.4368 167.831 29.2033 174.165C44.5439 183.242 67.2733 178.387 98.7285 159.457C101.121 158.05 103.936 156.291 107.243 154.18C136.587 135.532 205.761 91.7619 263.816 118.995C304.489 138.135 321.8 179.161 312.652 234.612ZM324.474 197.387C321.659 156.995 302.097 126.102 268.179 110.128L263.393 108.088C276.918 110.021 289.763 115.24 300.804 123.288C311.845 131.335 320.745 141.966 326.726 154.25C327.148 158.965 327.43 163.68 327.43 168.324C327.319 178.081 326.33 187.807 324.474 197.387Z" fill="white"/>
    <path d="M100.066 50.6661C75.577 54.255 70.44 50.0328 69.4548 48.7661C68.4696 47.4995 69.4548 45.5291 69.4548 44.4736C76.9745 38.4829 85.0038 33.1615 93.4509 28.5701L92.4657 30.8219C91.6562 33.0379 91.3499 35.4062 91.569 37.7553C91.7881 40.1043 92.5271 42.3751 93.7323 44.4032C95.2394 47.0242 97.4279 49.1884 100.066 50.6661Z" fill="#008184"/>
    <path d="M270.782 47.3587C263.556 43.2935 255.849 40.1493 247.842 37.9996C211.109 28.1478 173.883 35.1848 146.791 39.9699C124.554 43.981 106.962 47.0069 102.529 39.4774C102.036 38.6988 101.735 37.8148 101.649 36.8976C101.563 35.9803 101.696 35.0559 102.036 34.1996C104.78 26.5293 120.121 18.2961 129.339 14.7073C142.268 11.446 155.554 9.81483 168.887 9.85175C206.219 9.91061 242.322 23.1998 270.782 47.3587Z" fill="#008184"/>
    <path d="M322.574 130.887C303.785 109.284 262.619 81.6288 183.383 106.188C154.572 115.357 127.243 128.655 102.247 145.665L94.0137 150.802C66.3585 167.48 46.3735 172.406 34.5514 165.439C17.8035 156.009 20.4775 119.628 23.0812 105.554C31.7696 85.6152 44.4643 67.6749 60.3771 52.8476C60.6703 53.57 61.0483 54.255 61.503 54.8883C64.2474 58.5475 69.5251 61.9253 83.4583 61.9253C105.714 60.6737 127.713 56.5341 148.902 49.6106C176.487 44.6144 210.687 38.4922 245.308 47.5699C284.012 57.7031 308.641 95.2101 311.808 100.558C316.437 110.268 320.045 120.432 322.574 130.887Z" fill="#45ADAA"/>
    <path d="M327.148 168.465C327.122 178.166 326.227 187.845 324.474 197.387C321.659 156.995 302.097 126.102 268.179 110.128L263.393 108.088C276.918 110.021 289.763 115.24 300.804 123.288C311.845 131.335 320.745 141.966 326.726 154.25C326.867 158.965 327.148 163.68 327.148 168.465Z" fill="#A597A5"/>
    <path d="M312.652 234.612C308.384 243.851 303.247 252.663 297.312 260.93C301.001 247.286 300.387 232.835 295.552 219.553C291.527 209.164 285.22 199.812 277.096 192.187C268.972 184.562 259.239 178.86 248.616 175.502C226.379 169.661 185.916 173.461 155.587 214.698C135.743 242.846 113.365 258.538 89.299 261.282C67.1884 262.908 45.2977 255.981 28.1478 241.931C11.8835 211.267 6.26475 176.069 12.1739 141.865C14.0739 154.813 18.4368 167.832 29.2034 174.165C44.544 183.242 67.2733 178.387 98.7285 159.458C101.121 158.05 103.936 156.291 107.243 154.18C136.587 135.532 205.761 91.762 263.816 118.995C304.489 138.136 321.8 179.161 312.652 234.612Z" fill="#A597A5"/>
    <path d="M135.18 251.149C125.258 271.767 112.803 284.645 98.0249 289.43C85.8903 292.883 72.8935 291.548 61.7142 285.701C53.7307 278.365 46.4942 270.257 40.1107 261.493C52.7533 268.054 66.7532 271.572 80.9955 271.767C83.9346 271.773 86.8715 271.608 89.7917 271.275C106.547 269.091 122.312 262.101 135.18 251.149Z" fill="#578DA7"/>
    <path d="M275.356 285.63C249.397 309.352 216.28 323.757 181.227 326.573C146.175 329.389 111.183 320.455 81.7695 301.182H84.7954C90.2605 301.179 95.6937 300.349 100.91 298.719C119.98 292.667 135.462 275.99 146.932 249.46C174.376 185.565 221.946 179.091 245.449 185.213C254.544 188.211 262.865 193.177 269.822 199.757C276.779 206.337 282.201 214.369 285.701 223.283C293.301 242.353 289.571 263.956 275.356 285.63Z" fill="#578DA7"/>
    </g>
    <defs>
    <clipPath id="clip0_2_159">
    <rect width="337" height="337" fill="white"/>
    </clipPath>
    </defs>
    </svg>
    